# xmcd CD database file
#
# Track frame offsets:
#	150
#	14072
#	34826
#	51890
#	65280
#	77813
#	88477
#	102348
#	113770
#	125926
#	135226
#	150362
#	164924
#	178992
#	193382
#	203108
#	215257
#	229673
#	242066
#	255841
#	272175
#	284949
#	299819
#	316135
#	330156
#
# Disc length: 4616 seconds
#
# Revision: 0
# Processed by: cddbd v1.5.1PL2 Copyright (c) Steve Scherf et al.
# Submitted via: ACXtractor (MTCDDB.DLL V2003.12.21)
#
DISCID=84120619
DTITLE=Sammi Smith - Help Me Make It Through the Night
DYEAR=2005
DGENRE=Country
TTITLE0=He's Everything
TTITLE1=Sunday Mornin' Comin' Down
TTITLE2=With Pen In Hand
TTITLE3=This Room For Rent
TTITLE4=Lonely Street
TTITLE5=When Michael Calls
TTITLE6=Saunders Ferry Lane
TTITLE7=Help Me Make It Through the Night
TTITLE8=But You Know I Love You
TTITLE9=Don't Blow No Smoke On Me
TTITLE10=There He Goes
TTITLE11=Then You Walk In
TTITLE12=Willie
TTITLE13=Kentucky
TTITLE14=Girl in New Orleans
TTITLE15=Isn't It Sad
TTITLE16=I've Got To Have You
TTITLE17=The Toast of 45
TTITLE18=Tony
TTITLE19=I Miss You Most When You're Here
TTITLE20=Birmingham Mistake
TTITLE21=He Makes It Hard To Say Goodbye
TTITLE22=Fire and Rain
TTITLE23=The Weight
TTITLE24=Mr. Bojangles
EXTD=The Memorial Album ID3G:   2 YEAR: 2005
EXTT0=
EXTT1=
EXTT2=
EXTT3=
EXTT4=
EXTT5=
EXTT6=
EXTT7=
EXTT8=
EXTT9=
EXTT10=
EXTT11=
EXTT12=
EXTT13=
EXTT14=
EXTT15=
EXTT16=
EXTT17=
EXTT18=
EXTT19=
EXTT20=
EXTT21=
EXTT22=
EXTT23=
EXTT24=
PLAYORDER=
